<svg id="ez5MFxBR4ak1" xmlns="http://www.w3.org/2000/svg" xmlns:xlink="http://www.w3.org/1999/xlink" viewBox="0 0 640 480" shape-rendering="geometricPrecision" text-rendering="geometricPrecision"><path d="M205.378,99.95473C183.01184,44.03932,90.78816,73.69014,94.55862,115.16523c4.17168,45.88846,94.52241,65.37578,94.52241,91.26302c0,51.0876-101.87066,83.97901-132.54866,45.63151" transform="translate(0 0.000001)" fill="none" stroke="#3f5787" stroke-width="1.28"/><path d="M269.4794,147.75917c-15.7215,25.1544-55.18102,85.19209-30.421,114.07877c28.66179,33.43876,54.68849-19.74832,60.84201-41.28565c2.75842-9.65448,4.03696-18.01542,5.43232-28.24808.3945-2.89301.64249-5.80588,1.08647-8.69172.28079-1.82516,1.08646-7.27896,1.08646-5.43232c0,25.18599-37.93121,120.56587,23.90222,99.95473c9.25091-3.08364,18.09346-8.31528,24.98868-15.2105" transform="translate(.000001 0.000001)" fill="none" stroke="#3f5787" stroke-width="1.28"/><path d="M375.95292,203.16886c18.91776,2.70254,33.01728,29.68747,38.02626,46.71797.63492,2.15874-1.06267,32.60583-5.43232,30.42101-5.83058-2.91529-1.71521-13.26727,0-19.55636c6.97021-25.55744,33.49028-54.65305,54.32322-69.53372" fill="none" stroke="#3f5787" stroke-width="1.28"/><path d="M494.37755,249.88683c10.68528,3.56176,64.22593-.73053,55.40969-17.38343-15.2842-28.87015-66.07802-1.85023-60.84201,26.07515c6.38351,34.04536,63.84841,27.41461,81.48483,9.77818" transform="translate(0 0.000001)" fill="none" stroke="#3f5787" stroke-width="1.28"/><path d="M46.75419,359.61974c2.0339-10.1695,14.64623-46.71797,28.24808-46.71797c3.11537,0,4.24614,4.72453,5.43232,7.60525c7.65742,18.59659,7.6918,47.41958,6.51879,67.3608-.36215,6.15663-1.08646,12.30262-1.08646,18.4699c0,1.81077-1.65471,6.16775,0,5.43232c20.81633-9.2517,28.5768-44.56364,31.50747-64.1014.40401-2.6934,7.15096-35.53724,8.69172-34.76686c2.35818,1.17909,1.97072,4.97649,2.17293,7.60525c1.41901,18.44715,0,37.9826,0,56.49615c0,7.25214-.10578,14.57582,1.08646,21.72929.36215,2.17293-.74646,7.74074,1.08646,6.51879c25.06618-16.71079,33.87145-66.75197,44.54504-93.43594" transform="translate(0 0.000001)" fill="none" stroke="#3f5787" stroke-width="1.28"/><path d="M215.15618,342.23631c-16.11772,3.22354-42.6736,31.11876-23.90222,47.80444c10.61212,9.433,22.50751-18.01516,23.90222-24.98868.72431-3.62155,1.83856-7.18654,2.17293-10.86464.19673-2.16401-1.05527-8.41827,0-6.51879c5.94035,10.69263,6.03536,36.19123,20.64283,39.11272" fill="none" stroke="#3f5787" stroke-width="1.28"/><path d="M252.09597,354.18742c0,5.08309.78798,10.13619,1.08646,15.2105.1914,3.25377-.1808,6.5238,0,9.77818c2.11324,38.03838,14.79459-17.41845,21.72929-30.42101c1.14325-2.1436.82999-6.51879,3.25939-6.51879c2.61154,0,3.42889,4.07353,4.34586,6.51879c5.34464,14.25237,6.08397,30.85467,9.77818,45.63151" fill="none" stroke="#3f5787" stroke-width="1.28"/><path d="M340.09959,336.80398c-14.82447,2.96489-39.17058,30.33421-28.24808,46.71797c17.5009,26.25136,31.65543-38.52088,34.76686-26.07515c7.25643,29.02572-4.15691,115.31639-47.80444,80.39837" transform="translate(.000001 0)" fill="none" stroke="#3f5787" stroke-width="1.28"/><path d="M443.31372,438.93164c-22.47886-7.49295-64.51998-41.78656-30.421-67.3608c15.04788-11.28591,24.79149,23.50707,28.24808,22.81575c8.32236-1.66447,6.64481-46.85823,26.07515-38.02626c51.89504,23.58866-10.59336,61.56677-23.90222,79.31191" transform="translate(.000001 0.000001)" fill="none" stroke="#3f5787" stroke-width="1.28"/><path d="M578.03531,41.28565c-13.64402,16.37282-25.99212,33.93232-34.76686,53.23676-1.67549,3.68609-9.27355,9.58423-5.43232,10.86465c9.99012,3.33004,29.89402-21.20231,35.85333-27.16161c2.91979-2.91979,11.08395-3.68795,9.77818-7.60525-2.18062-6.54185-36.52313-10.05962-43.45858-11.95111-1.78157-.48588-3.89583-2.11079-5.43232-1.08646-6.15657,4.10438,5.82959,16.69423,8.69172,19.55636c4.53056,4.53056,9.81411,8.29665,14.12404,13.03757.0515.05665,7.63062,9.95503,8.69172,9.77818c1.92373-.32062,1.87638-3.50474,2.17293-5.43232c2.44414-15.88689,2.23014-31.79354,5.43232-47.80444" transform="translate(.000001 0)" fill="none" stroke="#3f5787" stroke-width="1.28"/><path d="M44.58126,16.29697C36.15754,30.3365,30.63643,46.49678,25.0249,61.92848c-1.29213,3.55337-7.0404,10.86465-3.25939,10.86465c3.97937,0,41.22946-27.71526,46.71797-32.59393c1.53119-1.36105,4.74763-2.33698,4.34586-4.34586-.36215-1.81077-3.59207-.93311-5.43232-1.08646-15.8653-1.32211-31.97019.35301-47.80444-1.08647-2.164-.19673-5.54702-1.94353-6.51879,0-1.08646,2.17293,1.49318,4.8507,3.25939,6.51879C29.11172,52.26782,45.05605,60.23035,57.61883,72.79313c1.44862,1.44862,2.32508,4.68266,4.34586,4.34586c1.92373-.32062,2.32251-3.4878,2.17293-5.43232C63.07249,57.86003,52.9544,41.03245,47.84065,28.24809" transform="translate(.000001 0.000001)" fill="none" stroke="#3f5787" stroke-width="1.28"/><path d="M598.67814,356.36034c-9.28877,12.38502-57.73668,61.00411-55.40969,74.96605.30358,1.82151,3.68045-.50251,5.43232-1.08646c7.17396-2.39132,14.28234-5.20462,21.72929-6.51879c8.00457-1.41257,39.29714-3.36164,42.37212-14.12404.49746-1.7411-1.85793-3.19921-3.25939-4.34586-10.79078-8.82882-25.23232-13.11659-36.93979-20.64282-8.28017-5.32296-16.30158-11.61929-24.98868-16.29697-3.71859-2.00232-8.69172-10.14034-10.86464-6.51879-3.0725,5.12084,24.79258,41.0111,30.42101,48.8909c1.32251,1.85151,22.25541,28.94851,22.81575,28.24808c4.56915-5.71143.51111-22.69015,0-29.33454-1.01469-13.19098,3.97493-26.39346,6.51879-39.11272" transform="translate(.000001 0)" fill="none" stroke="#3f5787" stroke-width="1.28"/><path d="M32.63015,437.84518c-4.91176,4.91176-9.30784,11.52241-13.03757,17.38343-.74754,1.1747-7.10422,15.56518-6.51879,16.29697c1.31352,1.6419,30.79498-3.31258,31.50747-6.51879c1.0839-4.87755-29.08951-24.70112-30.421-23.90222-6.06715,3.64029,14.00016,38.00148,19.55636,39.11272.54804.10961,4.13336-24.69391,4.34586-26.07515.60575-3.93738.78127-8.04477,0-11.95111" fill="none" stroke="#3f5787" stroke-width="1.28"/><path d="M367.2612,17.38343C356.80413,27.8405,346.756,38.08316,334.66727,46.71797c-1.71837,1.2274-5.43232,1.14769-5.43232,3.25939c0,3.55081,14.9103,6.02416,17.38343,6.51879c30.68803,6.13761,9.05063-12.31974,1.08646-28.24808-.12054-.24108-3.53277-10.25307-5.43232-9.77818-1.7915.44787-.94483,3.59113-1.08646,5.43232-1.13358,14.7366,3.67401,29.2271,1.08646,43.45858-.38871,2.13788-2.10805,7.0458,0,6.51879.70205-.17551,21.59874-45.30512,23.90222-51.06383" fill="none" stroke="#3f5787" stroke-width="1.28"/></svg>